<?xml version="1.0" encoding="UTF-8"?>
<svg width="48" height="48" viewBox="0 0 48 48" xmlns="http://www.w3.org/2000/svg">
  <!-- Ground coffee - Fine particles (stop) -->
  <!-- Many small circles representing ground coffee -->
  <circle cx="15" cy="18" r="1.5" fill="white"/>
  <circle cx="21" cy="16" r="2" fill="white"/>
  <circle cx="28" cy="15" r="1" fill="white"/>
  <circle cx="33" cy="19" r="1.5" fill="white"/>
  <circle cx="18" cy="23" r="2" fill="white"/>
  <circle cx="25" cy="21" r="1.5" fill="white"/>
  <circle cx="31" cy="24" r="2" fill="white"/>
  <circle cx="14" cy="28" r="1" fill="white"/>
  <circle cx="20" cy="27" r="1.5" fill="white"/>
  <circle cx="26" cy="28" r="2" fill="white"/>
  <circle cx="32" cy="30" r="1.5" fill="white"/>
  <circle cx="17" cy="32" r="2" fill="white"/>
  <circle cx="23" cy="33" r="1" fill="white"/>
  <circle cx="29" cy="34" r="1.5" fill="white"/>
  <circle cx="35" cy="27" r="1" fill="white"/>
  <circle cx="22" cy="19" r="1" fill="white"/>
  <circle cx="30" cy="17" r="1.5" fill="white"/>
  <circle cx="16" cy="25" r="1" fill="white"/>
  <circle cx="27" cy="25" r="1" fill="white"/>
  <circle cx="34" cy="23" r="1.5" fill="white"/>
  <circle cx="19" cy="30" r="1" fill="white"/>
  <circle cx="24" cy="30" r="1.5" fill="white"/>
  <circle cx="28" cy="31" r="1" fill="white"/>
  <circle cx="15" cy="22" r="1.5" fill="white"/>
  <circle cx="32" cy="28" r="1" fill="white"/>
</svg>
